<svg width="358" height="304" viewBox="0 0 358 304" fill="none" xmlns="http://www.w3.org/2000/svg">
<path fill-rule="evenodd" clip-rule="evenodd" d="M1.01422 260.091C0.227722 258.597 0.842987 256.743 2.35004 255.982C52.8654 230.486 78.7662 200.743 80.0531 166.753C80.1107 165.23 78.9593 163.95 77.4506 163.739C55.7556 160.692 37.719 151.433 23.3402 135.96C8.37924 119.861 0.898895 101.226 0.898895 80.0542C0.898895 57.5595 8.15924 38.5937 22.6802 23.1562C37.2011 7.71863 55.462 0 77.4634 0C102.105 0 123.446 10.0342 141.487 30.103C159.528 50.1718 168.549 74.5407 168.549 103.21C168.549 188.425 121.469 255.237 27.308 303.65C25.8515 304.399 24.0483 303.838 23.2853 302.389L1.01422 260.091ZM190.515 260.113C189.705 258.614 190.321 256.735 191.845 255.972C242.758 230.479 268.864 200.742 270.164 166.758C270.222 165.233 269.067 163.952 267.555 163.745C245.434 160.704 227.18 151.443 212.791 135.96C197.83 119.861 190.35 101.226 190.35 80.0542C190.35 57.5595 197.72 38.5937 212.461 23.1562C227.202 7.71863 245.573 0 267.575 0C292.216 0 313.447 10.0342 331.268 30.103C349.09 50.1718 358 74.5407 358 103.21C358 188.429 311.132 255.244 217.393 303.657C215.947 304.404 214.155 303.858 213.381 302.427L190.515 260.113Z" fill="#036994"/>
</svg>
